<svg width="1000" height="174" viewBox="0 0 1000 174" fill="none" xmlns="http://www.w3.org/2000/svg">
<rect x="914" width="86" height="49" rx="10" fill="#FFC700"/>
<path d="M147.009 7.6794C181.717 26.7929 185.806 148.256 147.009 169.63C108.212 191.004 0 129.142 0 88.6547C0 48.167 112.301 -11.4341 147.009 7.6794ZM126.462 42.8465C106.374 31.994 41.3514 65.8287 41.3514 88.8017C41.3514 111.775 103.994 146.887 126.462 134.757C148.929 122.627 146.549 53.6897 126.462 42.8373V42.8465Z" fill="url(#paint0_linear_10_5)"/>
<path fill-rule="evenodd" clip-rule="evenodd" d="M139.614 4.28551C141.991 4.87837 144.16 5.69775 146.09 6.76048C153.916 11.0702 160.185 20.5835 164.757 32.9796L139.192 66.5899C136.632 54.9062 132.003 45.4085 125.543 41.9184V41.9276C121.521 39.7545 115.696 39.3731 108.953 40.3376L139.614 4.28551ZM30.2736 132.854C41.8836 142.156 55.7172 150.769 69.9524 157.618L90.0538 131.191C75.9135 125.856 61.3874 116.986 51.7359 107.618L30.2736 132.854Z" fill="#1AD6FF"/>
<path d="M188.28 52.74L215.38 93.02V122.62C215.38 124.29 215.96 125.72 217.13 126.92C218.3 128.12 219.72 128.72 221.39 128.72C223.19 128.72 224.69 128.13 225.9 126.95C227.11 125.77 227.71 124.33 227.71 122.62V93.02L254.63 52.86C255.2 51.97 255.48 50.93 255.48 49.75C255.48 48.25 254.9 46.91 253.74 45.75C252.58 44.59 251.17 44.01 249.5 44.01C248.52 44.01 247.59 44.24 246.69 44.71C245.8 45.18 245.11 45.82 244.62 46.63L221.51 81.97L198.28 46.51C197.1 44.76 195.39 43.89 193.16 43.89C191.45 43.89 190.05 44.49 188.95 45.69C187.85 46.89 187.3 48.24 187.3 49.75C187.3 50.85 187.62 51.85 188.27 52.74H188.28ZM265.34 53.96C266.38 55.06 267.65 55.61 269.16 55.61H290.45V122.63C290.45 124.3 291.06 125.73 292.27 126.93C293.48 128.13 294.92 128.73 296.58 128.73C298.32 128.73 299.79 128.13 300.98 126.93C302.17 125.73 302.77 124.3 302.77 122.63V55.61H324.06C325.53 55.61 326.79 55.08 327.85 54.02C328.91 52.96 329.44 51.7 329.44 50.24C329.44 48.65 328.92 47.32 327.88 46.24C326.84 45.16 325.57 44.62 324.06 44.62H269.14C267.63 44.62 266.36 45.14 265.32 46.18C264.28 47.22 263.76 48.49 263.76 49.99C263.76 51.49 264.28 52.86 265.32 53.96H265.34ZM360.7 129.52C365.05 129.52 369.1 128.59 372.85 126.74C376.59 124.89 379.71 122.56 382.19 119.75V123.23C382.19 124.74 382.73 126.03 383.82 127.11C384.91 128.19 386.2 128.73 387.72 128.73C389.24 128.73 390.6 128.19 391.71 127.11C392.81 126.03 393.37 124.74 393.37 123.23V72.27C393.37 70.85 392.83 69.59 391.74 68.52C390.66 67.44 389.4 66.9 387.97 66.9C386.37 66.9 385.01 67.43 383.89 68.49C382.76 69.55 382.2 70.81 382.2 72.27V110.97C380.41 113.45 378.01 115.52 375 117.17C371.99 118.82 368.81 119.64 365.48 119.64C361.33 119.64 358.15 118.64 355.93 116.65C353.71 114.66 352.6 111.28 352.6 106.52V72.28C352.6 70.86 352.06 69.6 350.98 68.53C349.9 67.45 348.65 66.91 347.23 66.91C345.64 66.91 344.28 67.44 343.14 68.5C342 69.56 341.43 70.82 341.43 72.28V110.37C341.43 123.15 347.86 129.54 360.72 129.54L360.7 129.52ZM412.89 127.11C413.99 128.19 415.29 128.73 416.8 128.73C418.31 128.73 419.67 128.19 420.77 127.11C421.87 126.03 422.42 124.74 422.42 123.23V119.38C424.74 122.47 427.64 124.93 431.12 126.77C434.6 128.61 438.31 129.52 442.26 129.52C450.27 129.52 456.78 126.67 461.79 120.98C466.8 115.28 469.3 107.57 469.3 97.85C469.3 88.13 466.78 80.61 461.73 74.81C456.68 69.01 450.19 66.11 442.26 66.11C438.31 66.11 434.64 67.01 431.24 68.8C427.84 70.59 424.9 73.11 422.42 76.37V49.27C422.42 47.85 421.88 46.59 420.8 45.52C419.72 44.44 418.47 43.9 417.05 43.9C415.46 43.9 414.1 44.43 412.96 45.49C411.82 46.55 411.25 47.81 411.25 49.27V123.24C411.25 124.75 411.8 126.04 412.9 127.12L412.89 127.11ZM422.41 84.97C423.96 82.45 426.31 80.32 429.46 78.59C432.61 76.86 435.84 76 439.13 76C444.79 76 449.26 78.04 452.56 82.1C455.86 86.17 457.5 91.42 457.5 97.85C457.5 104.28 455.85 109.52 452.56 113.57C449.26 117.62 444.79 119.64 439.13 119.64C435.79 119.64 432.55 118.8 429.39 117.11C426.24 115.42 423.91 113.34 422.4 110.85V84.97H422.41ZM488.63 120.71C494.49 126.59 501.96 129.53 511.06 129.53C513.09 129.53 515.38 129.32 517.92 128.89C520.46 128.46 522.97 127.85 525.45 127.06C527.93 126.27 530 125.19 531.67 123.83C533.34 122.47 534.17 120.99 534.17 119.4C534.17 118.1 533.69 117.01 532.74 116.13C531.78 115.26 530.76 114.82 529.66 114.82C528.81 114.86 527.97 115.09 527.16 115.51C522.65 118.92 517.65 120.62 512.17 120.62C506.28 120.62 501.5 118.78 497.82 115.09C494.14 111.41 492.08 106.84 491.64 101.39H533.58C535.12 101.39 536.46 100.83 537.6 99.71C538.74 98.59 539.31 97.28 539.31 95.77C539.31 94.26 538.92 91.92 538.15 88.75C536.36 81.83 533.03 76.33 528.15 72.24C523.27 68.15 517.26 66.11 510.1 66.11C504.35 66.11 499.15 67.52 494.52 70.35C489.89 73.18 486.29 77 483.71 81.82C481.14 86.64 479.85 91.94 479.85 97.72C479.85 107.16 482.78 114.82 488.63 120.7V120.71ZM493.03 87.07C493.84 84.94 494.98 82.96 496.44 81.14C497.9 79.32 499.8 77.84 502.14 76.72C504.48 75.59 507.09 75.03 509.97 75.03C513.02 75.03 515.77 75.6 518.23 76.75C520.69 77.9 522.63 79.39 524.05 81.24C525.47 83.08 526.56 85.06 527.31 87.17C528.06 89.28 528.48 91.4 528.56 93.53H491.63C491.75 91.36 492.22 89.21 493.03 87.08V87.07Z" fill="#B92B27"/>
<path d="M621.8 121.37C626.05 116.95 628.18 111.62 628.18 105.37C628.18 100.04 626.68 95.48 623.68 91.68C620.68 87.89 616.89 85.66 612.3 84.99C616.47 84.07 619.88 81.93 622.55 78.55C625.22 75.17 626.55 70.95 626.55 65.86C626.55 60.36 624.43 55.44 620.17 51.11C615.92 46.78 609.79 44.61 601.79 44.61H551.17V127.99H603.55C611.47 127.99 617.55 125.78 621.8 121.37ZM576.42 75.37V65.62H595.92C597.25 65.62 598.42 66.06 599.42 66.93C600.42 67.8 600.92 68.95 600.92 70.37C600.92 71.79 600.42 72.98 599.42 73.93C598.42 74.89 597.25 75.37 595.92 75.37H576.42ZM576.42 106.99V96.37H596.67C598.42 96.37 599.84 96.89 600.92 97.93C602 98.97 602.54 100.24 602.54 101.74C602.54 103.32 602.02 104.6 600.98 105.55C599.94 106.51 598.5 106.99 596.67 106.99H576.42ZM701.54 97.74C701.54 88.91 698.46 81.43 692.29 75.3C686.12 69.18 677.87 66.11 667.54 66.11C657.21 66.11 648.98 69.17 642.85 75.3C636.72 81.43 633.66 88.91 633.66 97.74C633.66 106.57 636.72 114.07 642.85 120.24C648.97 126.41 657.2 129.49 667.54 129.49C677.88 129.49 686.12 126.41 692.29 120.24C698.46 114.07 701.54 106.57 701.54 97.74ZM659.66 106.3C657.74 104.09 656.78 101.24 656.78 97.74C656.78 94.24 657.74 91.51 659.66 89.3C661.58 87.09 664.2 85.99 667.54 85.99C670.88 85.99 673.62 87.1 675.54 89.3C677.46 91.51 678.42 94.32 678.42 97.74C678.42 101.16 677.46 104.1 675.54 106.3C673.62 108.51 670.96 109.61 667.54 109.61C664.12 109.61 661.58 108.51 659.66 106.3ZM773.66 97.74C773.66 88.91 770.58 81.43 764.41 75.3C758.24 69.18 749.99 66.11 739.66 66.11C729.33 66.11 721.1 69.17 714.97 75.3C708.84 81.43 705.78 88.91 705.78 97.74C705.78 106.57 708.84 114.07 714.97 120.24C721.09 126.41 729.32 129.49 739.66 129.49C750 129.49 758.24 126.41 764.41 120.24C770.58 114.07 773.66 106.57 773.66 97.74ZM731.78 106.3C729.86 104.09 728.9 101.24 728.9 97.74C728.9 94.24 729.86 91.51 731.78 89.3C733.7 87.09 736.32 85.99 739.66 85.99C743 85.99 745.74 87.1 747.66 89.3C749.58 91.51 750.54 94.32 750.54 97.74C750.54 101.16 749.58 104.1 747.66 106.3C745.74 108.51 743.08 109.61 739.66 109.61C736.24 109.61 733.7 108.51 731.78 106.3ZM827.4 123.68C832.57 119.8 835.15 114.83 835.15 108.74C835.15 104.07 833.98 100.22 831.65 97.18C829.32 94.14 826.46 92.04 823.09 90.87C819.71 89.7 816.34 88.83 812.97 88.25C809.59 87.67 806.74 87.17 804.41 86.75C802.08 86.33 800.91 85.71 800.91 84.87C800.91 84.2 801.45 83.6 802.53 83.06C803.61 82.52 804.95 82.25 806.53 82.25C809.86 82.25 813.13 82.87 816.34 84.13C819.55 85.38 822.19 86.84 824.28 88.51L832.53 73.89C824.7 68.72 815.99 66.14 806.41 66.14C797.99 66.14 791.39 68.14 786.6 72.14C781.81 76.14 779.41 81.02 779.41 86.76C779.41 90.68 780.26 94.01 781.97 96.76C783.68 99.51 785.78 101.49 788.28 102.7C790.78 103.91 793.53 104.89 796.53 105.64C799.53 106.39 802.28 106.87 804.78 107.08C807.28 107.29 809.38 107.64 811.09 108.14C812.8 108.64 813.65 109.31 813.65 110.14C813.65 111.89 811.65 112.76 807.65 112.76C804.4 112.76 800.57 111.97 796.15 110.38C791.73 108.8 788.32 107.05 785.9 105.13L776.9 120.25C780.15 123 784.52 125.23 790.02 126.94C795.52 128.65 801.02 129.5 806.52 129.5C815.27 129.5 822.23 127.56 827.4 123.69V123.68ZM883.9 125.49L879.9 108.49C879.15 109.24 877.65 109.61 875.4 109.61C873.9 109.61 872.69 109.07 871.78 107.99C870.86 106.91 870.4 105.57 870.4 103.99V87.11H882.65V67.61H870.4V51.11H847.9V67.61H837.9V87.11H847.9V110.49C847.9 116.74 849.67 121.47 853.21 124.68C856.75 127.89 861.9 129.49 868.65 129.49C875.82 129.49 880.9 128.16 883.9 125.49ZM934.9 127.55C939.65 126.26 943.44 124.41 946.28 121.99L937.03 108.11C935.61 109.28 933.42 110.28 930.47 111.11C927.51 111.94 925.07 112.36 923.16 112.36C919.66 112.36 916.78 111.61 914.54 110.11C912.3 108.61 910.83 106.82 910.16 104.73H951.16V100.11C951.16 89.69 948.2 81.42 942.28 75.3C936.36 69.18 928.86 66.11 919.78 66.11C910.2 66.11 902.32 69.15 896.16 75.23C889.99 81.31 886.91 88.81 886.91 97.73C886.91 107.4 890.1 115.11 896.47 120.85C902.84 126.59 910.86 129.47 920.53 129.47C925.36 129.47 930.15 128.82 934.91 127.53L934.9 127.55ZM909.9 90.49C911.23 85.66 914.52 83.24 919.78 83.24C925.04 83.24 928.61 85.66 929.78 90.49H909.9ZM981.4 90.99C983.73 88.16 988.19 86.74 994.78 86.74C996.95 86.74 998.66 86.95 999.9 87.36V65.86C996.57 65.86 993.13 66.69 989.59 68.36C986.05 70.03 983.32 71.98 981.4 74.24V67.62H958.9V128H981.4V91V90.99Z" fill="#5B4DD3"/>
<path d="M940.291 23.524V18.772H942.802C944.638 18.772 945.421 19.69 945.421 21.148C945.421 22.606 944.638 23.524 942.802 23.524H940.291ZM950.119 21.148C950.119 17.665 947.797 15.046 943.153 15.046H935.674V34H940.291V27.196H943.153C947.986 27.196 950.119 24.28 950.119 21.148ZM957.14 27.007C957.14 24.415 958.409 23.659 960.596 23.659H961.865V18.772C959.84 18.772 958.193 19.852 957.14 21.445V18.934H952.523V34H957.14V27.007ZM978.813 26.467C978.813 21.688 975.411 18.718 970.983 18.718C966.582 18.718 963.153 21.688 963.153 26.467C963.153 31.246 966.501 34.216 970.929 34.216C975.357 34.216 978.813 31.246 978.813 26.467ZM967.851 26.467C967.851 23.902 969.309 22.714 970.983 22.714C972.603 22.714 974.115 23.902 974.115 26.467C974.115 29.005 972.576 30.22 970.929 30.22C969.255 30.22 967.851 29.005 967.851 26.467Z" fill="black"/>
<defs>
<linearGradient id="paint0_linear_10_5" x1="174.595" y1="174" x2="32.1622" y2="20.5406" gradientUnits="userSpaceOnUse">
<stop stop-color="#B92B27"/>
<stop offset="0.5" stop-color="#7042C4"/>
<stop offset="0.987519" stop-color="#1565C0"/>
</linearGradient>
</defs>
</svg>
